<svg xmlns="http://www.w3.org/2000/svg" viewBox="-2.4 -2.4 34.602286 25.720671">
  <g transform="translate(45.552778 -144.88528)">
    <path fill="#ffffff" d="m -29.762449,165.73276 c -0.9021,-0.2177 -1.53782,-0.94971 -1.72834,-1.99009 -0.0506,-0.27631 -0.092,-1.29548 -0.092,-2.26483 v -1.76245 h -0.5533 -0.5533 l 0.0241,-0.86783 0.0241,-0.86783 0.52643,-0.0251 0.52643,-0.0251 0.0239,-0.94853 0.0239,-0.94853 h 1.016 1.016 l 0.0239,0.9525 0.0239,0.9525 h 0.88622 0.88623 v 0.88604 0.88604 l -0.86783,0.0241 -0.86783,0.0241 -0.0218,1.77799 c -0.0201,1.64219 -0.009,1.79878 0.14494,2.04991 0.2533,0.4131 0.62684,0.47514 1.41201,0.23455 0.16421,-0.0503 0.20445,0.0161 0.44573,0.73512 0.2492,0.74268 0.25628,0.79697 0.1173,0.89883 -0.4119,0.30185 -1.72058,0.45149 -2.43686,0.27863 z m 5.92666,-0.0408 c -1.05244,-0.2612 -1.98203,-0.98955 -2.44559,-1.91615 -0.3884,-0.77635 -0.50671,-1.38614 -0.45103,-2.32471 0.0559,-0.94323 0.28549,-1.6232 0.76281,-2.25966 0.74807,-0.99746 1.5387,-1.41475 2.8162,-1.48638 1.23202,-0.0691 2.09662,0.25713 2.86843,1.08225 0.72166,0.77151 1.09237,1.82427 1.04626,2.97122 l -0.0251,0.6239 -2.68948,0.0224 -2.68948,0.0224 0.056,0.23164 c 0.1207,0.49934 0.67646,1.05671 1.19809,1.20158 0.7669,0.21299 1.707,0.052 2.28925,-0.39215 l 0.29266,-0.22323 0.37018,0.41539 c 0.2036,0.22846 0.44543,0.51573 0.53741,0.63838 0.16711,0.22284 0.1671,0.22314 -0.0149,0.45453 -0.27642,0.35141 -0.99954,0.77726 -1.57152,0.92547 -0.60199,0.156 -1.74891,0.16244 -2.35021,0.0132 z m 2.60314,-4.67089 c 0.10766,-0.10766 -0.23283,-0.84034 -0.52744,-1.13494 -0.7198,-0.7198 -1.95414,-0.60289 -2.5571,0.2422 -0.24902,0.34902 -0.36996,0.71251 -0.28357,0.85229 0.0582,0.0942 3.27573,0.13283 3.36811,0.0404 z m 3.42473,4.65168 c -0.0697,-0.0697 -0.0782,-10.54984 -0.009,-10.73104 0.0443,-0.11553 0.21005,-0.13694 1.05949,-0.13694 h 1.00694 v 5.46099 5.461 h -1.00189 c -0.55104,0 -1.0262,-0.0243 -1.05591,-0.054 z m -27.74486,-10.40907 v -10.37841 l 3.83116,0.0366 c 4.26253,0.0408 4.56934,0.0739 5.70503,0.61647 0.74599,0.35639 1.342,0.97874 1.7628,1.84072 0.434,0.889 0.55434,1.46188 0.55434,2.63889 0,2.12711 -0.70507,3.43955 -2.27221,4.22961 l -0.55414,0.27936 0.31516,0.10401 c 1.17801,0.38878 2.17548,1.55306 2.73125,3.188 0.39451,1.16056 0.38568,3.04251 -0.02,4.26713 -0.49053,1.48065 -1.78026,2.67666 -3.41735,3.16903 -1.06765,0.3211 -1.96632,0.38595 -5.35517,0.38647 l -3.28083,5e-4 z m 7.3986,7.83094 c 0.32391,-0.25478 0.4754,-0.60086 0.4754,-1.08604 0,-0.5616 -0.22154,-0.80543 -1.42958,-1.57348 -0.92847,-0.59031 -1.08095,-0.75106 -0.98855,-1.04218 0.0267,-0.0842 0.53874,-0.56242 1.13777,-1.06261 1.24526,-1.03977 1.4267,-1.30749 1.29211,-1.90653 -0.15387,-0.68483 -0.73563,-1.01242 -1.28938,-0.72607 -0.1465,0.0757 -1.21041,0.76392 -2.36426,1.52925 -2.26563,1.50276 -2.36945,1.60419 -2.36945,2.31497 0,0.33594 0.16883,0.78077 0.37082,0.97707 0.11248,0.10931 3.02461,1.97893 3.79266,2.43493 0.62224,0.36943 1.0287,0.4111 1.37246,0.14069 z m -2.1916,-10.58371 c 0.8382,-0.51619 1.5893,-0.99696 1.66912,-1.06838 0.0798,-0.0714 0.20819,-0.29498 0.28527,-0.49681 0.25922,-0.67875 -0.01,-1.28841 -0.78924,-1.78916 -3.00634,-1.93123 -3.14198,-1.99234 -3.53967,-1.59464 -0.16449,0.16449 -0.20782,0.29491 -0.20782,0.62562 0,0.49327 0.0283,0.53044 1.04063,1.36848 0.78485,0.64972 0.93749,0.83667 0.85615,1.04863 -0.0464,0.12105 -0.48172,0.43341 -1.23922,0.8893 -0.49027,0.29506 -0.65756,0.56034 -0.65756,1.04275 0,0.34958 0.0407,0.45914 0.24749,0.66591 0.42275,0.42276 0.62015,0.36428 2.33485,-0.6917 z"/>
  </g>
</svg>
